# Blender v2.80 (sub 75) OBJ File: 'bro.blend'
# www.blender.org
mtllib room.mtl
o Corridor_Plane.001
v 1.464156 0.000000 -7.500000
v 1.464156 3.000000 -7.500000
v 1.464156 0.000000 -3.013792
v 1.464156 3.000000 -3.013792
v 1.464156 0.000000 -4.665019
v 1.464156 3.000000 -4.665019
v 1.464156 2.600504 -7.500000
v 1.464156 2.600504 -3.013792
v 1.464156 2.600504 -4.665019
v 1.622503 0.000000 -3.013792
v 1.622503 0.000000 -4.665019
v 1.622503 2.600504 -3.013792
v 1.622503 2.600504 -4.665019
v -1.464156 0.000000 -7.500000
v -1.464156 3.000000 -7.500000
v -1.464156 2.600504 -7.500000
v -1.622504 0.000000 -0.807941
v -1.622504 2.600504 -0.807941
v 1.464156 0.000000 7.500000
v 1.464156 3.000000 7.500000
v 1.464156 0.000000 3.013792
v 1.464156 3.000000 3.013792
v 1.464156 0.000000 4.665019
v 1.464156 3.000000 4.665019
v 1.464156 2.600504 7.500000
v 1.464156 2.600504 3.013792
v 1.464156 2.600504 4.665019
v 1.622503 0.000000 3.013792
v 1.622503 0.000000 4.665019
v 1.622503 2.600504 3.013792
v 1.622503 2.600504 4.665019
v -1.464156 0.000000 7.500000
v -1.464156 3.000000 7.500000
v -1.464156 0.000000 -0.807941
v -1.464156 3.000000 -0.807941
v -1.464156 0.000000 0.843286
v -1.464156 3.000000 0.843286
v -1.464156 2.600504 7.500000
v -1.464156 2.600504 -0.807941
v -1.464156 2.600504 0.843286
v -1.622503 0.000000 0.843286
v -1.622503 2.600504 0.843286
vt 0.376370 0.596412
vt 0.376370 0.766294
vt 0.225505 0.766294
vt 0.225505 0.596412
vt 0.032365 0.785445
vt 0.032365 0.949912
vt 0.009189 0.949912
vt 0.009189 0.785445
vt 0.032365 0.689651
vt 0.032365 0.339970
vt 0.183230 0.339970
vt 0.183230 0.689651
vt 0.225505 0.417540
vt 0.202329 0.417540
vt 0.202329 0.247659
vt 0.225505 0.247659
vt 0.009189 0.689651
vt 0.562239 0.511292
vt 0.562239 0.662374
vt 0.571438 0.662374
vt 0.571438 0.511292
vt 0.183230 0.785445
vt 0.183230 0.949912
vt 0.562239 0.662374
vt 0.562239 0.511292
vt 0.571438 0.511292
vt 0.571438 0.662374
vt 0.173201 0.689651
vt 0.173201 0.785445
vt 0.182388 0.785445
vt 0.182388 0.689651
vt 0.041551 0.689651
vt 0.041551 0.785445
vt 0.565796 0.064040
vt 0.565796 0.452270
vt 0.414931 0.452270
vt 0.414931 0.064040
vt 0.443470 0.531194
vt 0.443470 0.789568
vt 0.556530 0.789568
vt 0.556530 0.680112
vt 0.556530 0.616360
vt 0.556530 0.383640
vt 0.556530 0.319888
vt 0.556530 0.210432
vt 0.443470 0.210432
vt 0.443470 0.467441
vt 0.391755 0.452270
vt 0.391755 0.064040
vt 0.009189 0.339970
vt 0.032365 0.244176
vt 0.009189 0.244176
vt 0.009189 0.079709
vt 0.032365 0.079709
vt 0.202329 0.766294
vt 0.202329 0.596412
vt 0.562239 0.511293
vt 0.571438 0.511293
vt 0.571438 0.662374
vt 0.562239 0.662374
vt 0.183230 0.244176
vt 0.183230 0.079709
vt 0.562239 0.662374
vt 0.571438 0.662374
vt 0.571438 0.511292
vt 0.562239 0.511292
vt 0.174544 0.339970
vt 0.183730 0.339970
vt 0.183730 0.244176
vt 0.174544 0.244176
vt 0.041551 0.244176
vt 0.041551 0.339970
vt 0.414931 0.548064
vt 0.414931 0.934244
vt 0.391755 0.934244
vt 0.391755 0.548064
vt 0.392112 0.511292
vt 0.392112 0.662374
vt 0.382913 0.662374
vt 0.382913 0.511292
vt 0.565796 0.548064
vt 0.565796 0.934244
vt 0.392112 0.662374
vt 0.392112 0.511292
vt 0.382913 0.511292
vt 0.382913 0.662374
vt 0.565796 0.548064
vt 0.565796 0.452270
vt 0.556610 0.452270
vt 0.556610 0.548064
vt 0.424117 0.452270
vt 0.424117 0.548064
vt 0.414931 0.548064
vt 0.414931 0.452270
vt 0.376370 0.417540
vt 0.376370 0.247659
vn 0.0000 0.0000 1.0000
vn 1.0000 0.0000 0.0000
vn 0.0000 0.0000 -1.0000
vn 0.0000 -1.0000 0.0000
vn 0.0000 1.0000 0.0000
vn -1.0000 0.0000 0.0000
usemtl corridor
s off
f 32/1/1 19/2/1 25/3/1 38/4/1
f 9/5/2 7/6/2 2/7/2 6/8/2
f 8/9/2 26/10/2 21/11/2 3/12/2
f 16/13/3 15/14/3 2/15/3 7/16/3
f 8/9/2 9/5/2 6/8/2 4/17/2
f 5/18/3 9/19/3 13/20/3 11/21/3
f 5/22/2 1/23/2 7/6/2 9/5/2
f 8/24/1 3/25/1 10/26/1 12/27/1
f 3/28/4 5/29/4 11/30/4 10/31/4
f 9/5/5 8/9/5 12/32/5 13/33/5
f 14/34/6 34/35/6 39/36/6 16/37/6
f 34/38/4 14/39/4 1/40/4 5/41/4 3/42/4 21/43/4 23/44/4 19/45/4 32/46/4 36/47/4
f 35/48/6 15/49/6 16/37/6 39/36/6
f 4/17/2 22/50/2 26/10/2 8/9/2
f 27/51/2 24/52/2 20/53/2 25/54/2
f 38/4/1 25/3/1 20/55/1 33/56/1
f 26/10/2 22/50/2 24/52/2 27/51/2
f 23/57/1 29/58/1 31/59/1 27/60/1
f 23/61/2 27/51/2 25/54/2 19/62/2
f 26/63/3 30/64/3 28/65/3 21/66/3
f 21/67/4 28/68/4 29/69/4 23/70/4
f 27/51/5 31/71/5 30/72/5 26/10/5
f 40/73/6 38/74/6 33/75/6 37/76/6
f 39/36/6 40/73/6 37/76/6 35/48/6
f 36/77/1 40/78/1 42/79/1 41/80/1
f 36/81/6 32/82/6 38/74/6 40/73/6
f 39/83/3 34/84/3 17/85/3 18/86/3
f 34/87/4 36/88/4 41/89/4 17/90/4
f 40/91/5 39/92/5 18/93/5 42/94/5
f 14/95/3 16/13/3 7/16/3 1/96/3
o NaturalRoom_Plane.003
v -1.622504 0.000000 -0.807941
v -1.622504 2.600504 -0.807941
v -1.622503 0.000000 -6.911541
v -1.622503 2.600504 -6.911541
v -6.319552 2.600504 -6.911541
v -6.319552 0.000000 -6.911541
v -1.622503 0.000000 0.843286
v -1.622503 2.600504 0.843286
v -1.622503 0.000000 6.911541
v -1.622503 2.600504 6.911541
v -6.319552 2.600504 6.911541
v -6.319552 0.000000 6.911541
v -1.622504 3.000000 -0.807941
v -1.622503 3.000000 -6.911541
v -6.319552 3.000000 -6.911541
v -1.622503 3.000000 0.843286
v -1.622503 3.000000 6.911541
v -6.319552 3.000000 6.911541
vt 0.264780 0.972108
vt 0.234243 0.972109
vt 0.234243 0.033416
vt 0.264780 0.033416
vt 0.990997 0.636931
vt 0.990998 0.995974
vt 0.792215 0.995974
vt 0.792214 0.636931
vt 0.030608 0.563936
vt 0.030608 0.978420
vt 0.000070 0.978420
vt 0.000070 0.563936
vt 0.463563 0.033414
vt 0.463564 0.972108
vt 0.229392 0.451803
vt 0.030608 0.451804
vt 0.030608 0.039721
vt 0.229392 0.039719
vt 0.756827 0.996920
vt 0.558043 0.996921
vt 0.558043 0.637876
vt 0.756826 0.637876
vt 0.000070 0.451805
vt 0.000070 0.039722
vt 0.229392 0.563936
vt 0.229392 0.978420
vt 0.527505 0.996921
vt 0.527505 0.637876
vt 0.761677 0.995974
vt 0.761677 0.636932
vt 0.657727 0.006387
vt 0.566675 0.006387
vt 0.232064 0.006387
vt 0.232064 0.365431
vt 0.994287 0.365431
vt 0.994287 0.006387
vn -1.0000 0.0000 0.0000
vn 0.0000 0.0000 -1.0000
vn 1.0000 0.0000 0.0000
vn 0.0000 0.0000 1.0000
vn 0.0000 -1.0000 0.0000
usemtl walls
s off
f 53/97/7 60/98/7 57/99/7 47/100/7
f 45/101/8 48/102/8 47/103/8 46/104/8
f 44/105/9 46/106/9 56/107/9 55/108/9
f 53/97/7 47/100/7 48/109/7 54/110/7
f 49/111/9 50/112/9 52/113/9 51/114/9
f 51/115/10 52/116/10 53/117/10 54/118/10
f 52/113/9 50/112/9 58/119/9 59/120/9
f 43/121/9 45/122/9 46/106/9 44/105/9
f 53/117/10 52/116/10 59/123/10 60/124/10
f 46/104/8 47/103/8 57/125/8 56/126/8
f 50/112/9 44/105/9 55/108/9 58/119/9
usemtl floor
f 43/127/11 49/128/11 51/129/11 54/130/11 48/131/11 45/132/11
o NURBSRoom_Plane.005
v 1.622503 0.000000 -3.013792
v 1.622503 0.000000 -4.665019
v 1.622503 2.600504 -3.013792
v 1.622503 2.600504 -4.665019
v 1.622503 0.000000 -0.644799
v 1.622503 2.600504 -0.644799
v 6.319552 0.000000 -4.665019
v 1.622503 0.000000 -6.911541
v 1.622503 2.600504 -6.911541
v 6.319552 2.600504 -6.911541
v 6.319552 2.600504 -3.013792
v 6.319552 2.600504 -4.665019
v 6.319552 2.600504 -0.644799
v 6.319552 0.000000 -3.013792
v 6.319552 0.000000 -0.644799
v 6.319552 0.000000 -6.911541
v 1.622503 3.000000 -3.013792
v 1.622503 3.000000 -4.665019
v 1.622503 3.000000 -0.644799
v 1.622503 3.000000 -6.911541
v 6.319552 3.000000 -6.911541
v 6.319552 3.000000 -3.013792
v 6.319552 3.000000 -4.665019
v 6.319552 3.000000 -0.644799
vt 0.303886 0.007470
vt -0.000742 0.007469
vt -0.000742 -0.261686
vt 0.303886 -0.261685
vt 0.303962 -0.264956
vt -0.000665 -0.264956
vt -0.000666 -0.815177
vt 0.303962 -0.815177
vt -0.000741 0.195076
vt 0.303886 0.195075
vt 0.303886 0.450315
vt -0.000741 0.450316
vt 0.000119 0.449635
vt 0.304747 0.449635
vt 0.304747 0.999855
vt 0.000120 0.999855
vt 0.576064 0.313380
vt 0.321855 0.313380
vt 0.321855 0.008752
vt 0.576063 0.008752
vt 0.753251 0.313380
vt 0.753251 0.008752
vt 0.994319 0.313380
vt 0.994318 0.008752
vt 0.350759 -0.815177
vt 0.350759 -0.264957
vt 0.350684 0.195075
vt 0.350684 0.450315
vt 0.994319 0.360178
vt 0.753251 0.360178
vt 0.351544 0.449635
vt 0.351544 0.999855
vt 0.576064 0.360178
vt 0.350684 -0.261685
vt 0.350684 0.007470
vt 0.321855 0.360178
vt 0.736766 0.450519
vt 0.993063 0.450519
vt 0.993063 1.000739
vt 0.736765 1.000739
vt 0.278113 0.450519
vt 0.548383 0.450519
vt 0.548382 1.000739
vt 0.278113 1.000739
vn -1.0000 0.0000 0.0000
vn 0.0000 0.0000 1.0000
vn 0.0000 0.0000 -1.0000
vn 1.0000 0.0000 0.0000
vn 0.0000 -1.0000 0.0000
usemtl walls_nurbs
s off
f 63/133/12 61/134/12 65/135/12 66/136/12
f 66/137/13 65/138/13 75/139/13 73/140/13
f 62/141/12 64/142/12 69/143/12 68/144/12
f 68/145/14 69/146/14 70/147/14 76/148/14
f 71/149/15 73/150/15 75/151/15 74/152/15
f 72/153/15 71/149/15 74/152/15 67/154/15
f 70/155/15 72/153/15 67/154/15 76/156/15
f 66/137/13 73/140/13 84/157/13 79/158/13
f 69/143/12 64/142/12 78/159/12 80/160/12
f 72/153/15 70/155/15 81/161/15 83/162/15
f 70/147/14 69/146/14 80/163/14 81/164/14
f 71/149/15 72/153/15 83/162/15 82/165/15
f 63/133/12 66/136/12 79/166/12 77/167/12
f 64/142/12 63/133/12 77/167/12 78/159/12
f 73/150/15 71/149/15 82/165/15 84/168/15
usemtl floor_nurbs
f 62/169/16 68/170/16 76/171/16 67/172/16
f 65/173/16 61/174/16 74/175/16 75/176/16
f 61/174/16 62/169/16 67/172/16 74/175/16
o Toon_room_Plane.006
v 1.622503 0.000000 4.665019
v 1.622503 0.000000 3.013792
v 1.622503 2.600504 4.665019
v 1.622503 2.600504 3.013792
v 1.622503 0.000000 6.911541
v 1.622503 2.600504 6.911541
v 6.319552 0.000000 2.891322
v 1.622503 0.000000 0.644800
v 1.622503 2.600504 0.644800
v 6.319552 2.600504 0.644800
v 6.319552 2.600504 4.542548
v 6.319552 2.600504 2.891322
v 6.319552 2.600504 6.911541
v 6.319552 0.000000 4.542548
v 6.319552 0.000000 6.911541
v 6.319552 0.000000 0.644800
v 1.622503 3.000000 4.542548
v 1.622503 3.000000 2.891322
v 1.622503 3.000000 6.911541
v 1.622503 3.000000 0.644800
v 6.319552 3.000000 0.644800
v 6.319552 3.000000 4.542548
v 6.319552 3.000000 2.891322
v 6.319552 3.000000 6.911541
vt 0.303886 0.007470
vt -0.000742 0.007469
vt -0.000742 -0.261686
vt 0.303886 -0.261685
vt 0.303962 -0.264956
vt -0.000665 -0.264956
vt -0.000666 -0.815177
vt 0.303962 -0.815177
vt -0.000741 0.195076
vt 0.303886 0.195075
vt 0.303886 0.450315
vt -0.000741 0.450316
vt 0.000119 0.449635
vt 0.304747 0.449635
vt 0.304747 0.999855
vt 0.000120 0.999855
vt 0.576064 0.313380
vt 0.321855 0.313380
vt 0.321855 0.008752
vt 0.576063 0.008752
vt 0.753251 0.313380
vt 0.753251 0.008752
vt 0.994319 0.313380
vt 0.994318 0.008752
vt 0.350759 -0.815177
vt 0.350759 -0.264957
vt 0.350684 0.195075
vt 0.350684 0.450315
vt 0.994319 0.360178
vt 0.753251 0.360178
vt 0.351544 0.449635
vt 0.351544 0.999855
vt 0.576064 0.360178
vt 0.350684 -0.261685
vt 0.350684 0.007470
vt 0.321855 0.360178
vt 0.736766 0.450519
vt 0.993063 0.450519
vt 0.993063 1.000739
vt 0.736765 1.000739
vt 0.278113 0.450519
vt 0.548383 0.450519
vt 0.548382 1.000739
vt 0.278113 1.000739
vn -1.0000 0.0000 0.0000
vn 0.0000 0.0000 1.0000
vn 0.0000 0.0000 -1.0000
vn 1.0000 0.0000 0.0000
vn 0.0000 -1.0000 0.0000
usemtl walls_toon
s off
f 87/177/17 85/178/17 89/179/17 90/180/17
f 90/181/18 89/182/18 99/183/18 97/184/18
f 86/185/17 88/186/17 93/187/17 92/188/17
f 92/189/19 93/190/19 94/191/19 100/192/19
f 95/193/20 97/194/20 99/195/20 98/196/20
f 96/197/20 95/193/20 98/196/20 91/198/20
f 94/199/20 96/197/20 91/198/20 100/200/20
f 90/181/18 97/184/18 108/201/18 103/202/18
f 93/187/17 88/186/17 102/203/17 104/204/17
f 96/197/20 94/199/20 105/205/20 107/206/20
f 94/191/19 93/190/19 104/207/19 105/208/19
f 95/193/20 96/197/20 107/206/20 106/209/20
f 87/177/17 90/180/17 103/210/17 101/211/17
f 88/186/17 87/177/17 101/211/17 102/203/17
f 97/194/20 95/193/20 106/209/20 108/212/20
usemtl floor_toon
f 86/213/21 92/214/21 100/215/21 91/216/21
f 89/217/21 85/218/21 98/219/21 99/220/21
f 85/218/21 86/213/21 91/216/21 98/219/21
